<?xml version="1.0" encoding="UTF-8"?>
<!DOCTYPE svg
PUBLIC "-//W3C//DTD SVG 1.1//EN"
       "http://www.w3.org/Graphics/SVG/1.1/DTD/svg11.dtd">
<svg viewBox="95 44 1193 651" width="1098px" height="607px" xmlns="http://www.w3.org/2000/svg" version="1.1">
   <line x1="728" y1="466" x2="738" y2="466" style="stroke:#cb0;stroke-width:1;"/>
   <line x1="866" y1="526" x2="876" y2="526" style="stroke:#cb0;stroke-width:1;"/>
   <line x1="738" y1="466" x2="866" y2="526" style="stroke:#cb0;stroke-width:1;"/>
   <line x1="735.5" y1="466" x2="731.96446609407" y2="469.53553390593" style="stroke:#cb0;stroke-width:2;"/>
   <line x1="735.5" y1="466" x2="731.96446609407" y2="462.46446609407" style="stroke:#cb0;stroke-width:2;"/>
   <line x1="871" y1="526" x2="867.46446609407" y2="529.53553390593" style="stroke:#cb0;stroke-width:2;"/>
   <line x1="871" y1="526" x2="867.46446609407" y2="522.46446609407" style="stroke:#cb0;stroke-width:2;"/>
   <line x1="655" y1="486" x2="645" y2="486" style="stroke:#cb0;stroke-width:1;"/>
   <line x1="525" y1="455" x2="515" y2="455" style="stroke:#cb0;stroke-width:1;"/>
   <line x1="645" y1="486" x2="525" y2="455" style="stroke:#cb0;stroke-width:1;"/>
   <line x1="647.5" y1="486" x2="651.03553390593" y2="489.53553390593" style="stroke:#cb0;stroke-width:2;"/>
   <line x1="647.5" y1="486" x2="651.03553390593" y2="482.46446609407" style="stroke:#cb0;stroke-width:2;"/>
   <line x1="520" y1="455" x2="523.53553390593" y2="458.53553390593" style="stroke:#cb0;stroke-width:2;"/>
   <line x1="520" y1="455" x2="523.53553390593" y2="451.46446609407" style="stroke:#cb0;stroke-width:2;"/>
   <line x1="126" y1="191" x2="116" y2="191" style="stroke:#b0b;stroke-width:1;"/>
   <line x1="117" y1="374" x2="127" y2="374" style="stroke:#b0b;stroke-width:1;"/>
   <line x1="116" y1="191" x2="117" y2="374" style="stroke:#b0b;stroke-width:1;"/>
   <line x1="118.5" y1="191" x2="122.03553390593" y2="194.53553390593" style="stroke:#b0b;stroke-width:2;"/>
   <line x1="118.5" y1="191" x2="122.03553390593" y2="187.46446609407" style="stroke:#b0b;stroke-width:2;"/>
   <line x1="122" y1="374" x2="118.46446609407" y2="377.53553390593" style="stroke:#b0b;stroke-width:2;"/>
   <line x1="122" y1="374" x2="118.46446609407" y2="370.46446609407" style="stroke:#b0b;stroke-width:2;"/>
   <line x1="218" y1="211" x2="228" y2="211" style="stroke:#0bf;stroke-width:1;"/>
   <line x1="382" y1="248" x2="392" y2="248" style="stroke:#0bf;stroke-width:1;"/>
   <line x1="228" y1="211" x2="382" y2="248" style="stroke:#0bf;stroke-width:1;"/>
   <line x1="225.5" y1="211" x2="221.96446609407" y2="214.53553390593" style="stroke:#0bf;stroke-width:2;"/>
   <line x1="225.5" y1="211" x2="221.96446609407" y2="207.46446609407" style="stroke:#0bf;stroke-width:2;"/>
   <line x1="387" y1="248" x2="383.46446609407" y2="251.53553390593" style="stroke:#0bf;stroke-width:2;"/>
   <line x1="387" y1="248" x2="383.46446609407" y2="244.46446609407" style="stroke:#0bf;stroke-width:2;"/>
   <line x1="218" y1="231" x2="228" y2="231" style="stroke:#333;stroke-width:1;"/>
   <line x1="382" y1="248" x2="392" y2="248" style="stroke:#333;stroke-width:1;"/>
   <line x1="228" y1="231" x2="382" y2="248" style="stroke:#333;stroke-width:1;"/>
   <line x1="225.5" y1="231" x2="221.96446609407" y2="234.53553390593" style="stroke:#333;stroke-width:2;"/>
   <line x1="225.5" y1="231" x2="221.96446609407" y2="227.46446609407" style="stroke:#333;stroke-width:2;"/>
   <line x1="387" y1="248" x2="383.46446609407" y2="251.53553390593" style="stroke:#333;stroke-width:2;"/>
   <line x1="387" y1="248" x2="383.46446609407" y2="244.46446609407" style="stroke:#333;stroke-width:2;"/>
   <line x1="660" y1="604" x2="650" y2="604" style="stroke:#b0b;stroke-width:1;"/>
   <line x1="531" y1="606" x2="521" y2="606" style="stroke:#b0b;stroke-width:1;"/>
   <line x1="650" y1="604" x2="531" y2="606" style="stroke:#b0b;stroke-width:1;"/>
   <line x1="652.5" y1="604" x2="656.03553390593" y2="607.53553390593" style="stroke:#b0b;stroke-width:2;"/>
   <line x1="652.5" y1="604" x2="656.03553390593" y2="600.46446609407" style="stroke:#b0b;stroke-width:2;"/>
   <line x1="526" y1="606" x2="529.53553390593" y2="609.53553390593" style="stroke:#b0b;stroke-width:2;"/>
   <line x1="526" y1="606" x2="529.53553390593" y2="602.46446609407" style="stroke:#b0b;stroke-width:2;"/>
   <line x1="768" y1="624" x2="778" y2="624" style="stroke:#b0b;stroke-width:1;"/>
   <line x1="866" y1="526" x2="876" y2="526" style="stroke:#b0b;stroke-width:1;"/>
   <line x1="778" y1="624" x2="866" y2="526" style="stroke:#b0b;stroke-width:1;"/>
   <line x1="775.5" y1="624" x2="771.96446609407" y2="627.53553390593" style="stroke:#b0b;stroke-width:2;"/>
   <line x1="775.5" y1="624" x2="771.96446609407" y2="620.46446609407" style="stroke:#b0b;stroke-width:2;"/>
   <line x1="871" y1="526" x2="867.46446609407" y2="529.53553390593" style="stroke:#b0b;stroke-width:2;"/>
   <line x1="871" y1="526" x2="867.46446609407" y2="522.46446609407" style="stroke:#b0b;stroke-width:2;"/>
   <line x1="1067" y1="364" x2="1057" y2="364" style="stroke:#333;stroke-width:1;"/>
   <line x1="1051" y1="90" x2="1061" y2="90" style="stroke:#333;stroke-width:1;"/>
   <line x1="1057" y1="364" x2="1051" y2="90" style="stroke:#333;stroke-width:1;"/>
   <line x1="1059.5" y1="364" x2="1063.0355339059" y2="367.53553390593" style="stroke:#333;stroke-width:2;"/>
   <line x1="1059.5" y1="364" x2="1063.0355339059" y2="360.46446609407" style="stroke:#333;stroke-width:2;"/>
   <line x1="1056" y1="90" x2="1052.4644660941" y2="93.535533905933" style="stroke:#333;stroke-width:2;"/>
   <line x1="1056" y1="90" x2="1052.4644660941" y2="86.464466094067" style="stroke:#333;stroke-width:2;"/>
   <line x1="1067" y1="384" x2="1057" y2="384" style="stroke:#b0b;stroke-width:1;"/>
   <line x1="950" y1="422" x2="940" y2="422" style="stroke:#b0b;stroke-width:1;"/>
   <line x1="1057" y1="384" x2="950" y2="422" style="stroke:#b0b;stroke-width:1;"/>
   <line x1="1059.5" y1="384" x2="1063.0355339059" y2="387.53553390593" style="stroke:#b0b;stroke-width:2;"/>
   <line x1="1059.5" y1="384" x2="1063.0355339059" y2="380.46446609407" style="stroke:#b0b;stroke-width:2;"/>
   <line x1="945" y1="422" x2="948.53553390593" y2="425.53553390593" style="stroke:#b0b;stroke-width:2;"/>
   <line x1="945" y1="422" x2="948.53553390593" y2="418.46446609407" style="stroke:#b0b;stroke-width:2;"/>
   <line x1="1162" y1="404" x2="1172" y2="404" style="stroke:#333;stroke-width:1;"/>
   <line x1="1168" y1="520" x2="1158" y2="520" style="stroke:#333;stroke-width:1;"/>
   <line x1="1172" y1="404" x2="1168" y2="520" style="stroke:#333;stroke-width:1;"/>
   <line x1="1169.5" y1="404" x2="1165.9644660941" y2="407.53553390593" style="stroke:#333;stroke-width:2;"/>
   <line x1="1169.5" y1="404" x2="1165.9644660941" y2="400.46446609407" style="stroke:#333;stroke-width:2;"/>
   <line x1="1163" y1="520" x2="1166.5355339059" y2="523.53553390593" style="stroke:#333;stroke-width:2;"/>
   <line x1="1163" y1="520" x2="1166.5355339059" y2="516.46446609407" style="stroke:#333;stroke-width:2;"/>
   <line x1="927" y1="113" x2="937" y2="113" style="stroke:#0b0;stroke-width:1;"/>
   <line x1="944" y1="260" x2="934" y2="260" style="stroke:#0b0;stroke-width:1;"/>
   <line x1="937" y1="113" x2="944" y2="260" style="stroke:#0b0;stroke-width:1;"/>
   <line x1="934.5" y1="113" x2="930.96446609407" y2="116.53553390593" style="stroke:#0b0;stroke-width:2;"/>
   <line x1="934.5" y1="113" x2="930.96446609407" y2="109.46446609407" style="stroke:#0b0;stroke-width:2;"/>
   <line x1="939" y1="260" x2="942.53553390593" y2="263.53553390593" style="stroke:#0b0;stroke-width:2;"/>
   <line x1="939" y1="260" x2="942.53553390593" y2="256.46446609407" style="stroke:#0b0;stroke-width:2;"/>
   <line x1="849" y1="133" x2="839" y2="133" style="stroke:#0b0;stroke-width:1;"/>
   <line x1="757" y1="89" x2="747" y2="89" style="stroke:#0b0;stroke-width:1;"/>
   <line x1="839" y1="133" x2="757" y2="89" style="stroke:#0b0;stroke-width:1;"/>
   <line x1="841.5" y1="133" x2="845.03553390593" y2="136.53553390593" style="stroke:#0b0;stroke-width:2;"/>
   <line x1="841.5" y1="133" x2="845.03553390593" y2="129.46446609407" style="stroke:#0b0;stroke-width:2;"/>
   <line x1="752" y1="89" x2="755.53553390593" y2="92.535533905933" style="stroke:#0b0;stroke-width:2;"/>
   <line x1="752" y1="89" x2="755.53553390593" y2="85.464466094067" style="stroke:#0b0;stroke-width:2;"/>
   <line x1="1085" y1="580" x2="1075" y2="580" style="stroke:#0b0;stroke-width:1;"/>
   <line x1="949" y1="526" x2="939" y2="526" style="stroke:#0b0;stroke-width:1;"/>
   <line x1="1075" y1="580" x2="949" y2="526" style="stroke:#0b0;stroke-width:1;"/>
   <line x1="1077.5" y1="580" x2="1081.0355339059" y2="583.53553390593" style="stroke:#0b0;stroke-width:2;"/>
   <line x1="1077.5" y1="580" x2="1081.0355339059" y2="576.46446609407" style="stroke:#0b0;stroke-width:2;"/>
   <line x1="944" y1="526" x2="947.53553390593" y2="529.53553390593" style="stroke:#0b0;stroke-width:2;"/>
   <line x1="944" y1="526" x2="947.53553390593" y2="522.46446609407" style="stroke:#0b0;stroke-width:2;"/>
   <line x1="859" y1="300" x2="849" y2="300" style="stroke:#0bf;stroke-width:1;"/>
   <line x1="852" y1="422" x2="862" y2="422" style="stroke:#0bf;stroke-width:1;"/>
   <line x1="849" y1="300" x2="852" y2="422" style="stroke:#0bf;stroke-width:1;"/>
   <line x1="851.5" y1="300" x2="855.03553390593" y2="303.53553390593" style="stroke:#0bf;stroke-width:2;"/>
   <line x1="851.5" y1="300" x2="855.03553390593" y2="296.46446609407" style="stroke:#0bf;stroke-width:2;"/>
   <line x1="857" y1="422" x2="853.46446609407" y2="425.53553390593" style="stroke:#0bf;stroke-width:2;"/>
   <line x1="857" y1="422" x2="853.46446609407" y2="418.46446609407" style="stroke:#0bf;stroke-width:2;"/>
   <rect width="64" height="20" x="110" y="533" style="fill:#007;stroke:black;"/>
   <text width="64" height="20" x="115" y="547" style="fill:#fff;" font-family="Arial" font-size="16px"> admin</text>
   <rect width="64" height="20" x="110" y="553" style="fill:#aea;stroke:black;"/>
   <text width="64" height="20" x="115" y="567" style="fill:black;" font-family="Arial" font-size="16px">id</text>
   <rect width="64" height="20" x="110" y="573" style="fill:none;stroke:black;"/>
   <text width="64" height="20" x="115" y="587" style="fill:black;" font-family="Arial" font-size="16px">login</text>
   <rect width="64" height="20" x="110" y="593" style="fill:none;stroke:black;"/>
   <text width="64" height="20" x="115" y="607" style="fill:black;" font-family="Arial" font-size="16px">passwd</text>
   <rect width="63" height="20" x="876" y="496" style="fill:#007;stroke:black;"/>
   <text width="63" height="20" x="881" y="510" style="fill:#fff;" font-family="Arial" font-size="16px"> bateau</text>
   <rect width="63" height="20" x="876" y="516" style="fill:#aea;stroke:black;"/>
   <text width="63" height="20" x="881" y="530" style="fill:black;" font-family="Arial" font-size="16px">id</text>
   <rect width="63" height="20" x="876" y="536" style="fill:none;stroke:black;"/>
   <text width="63" height="20" x="881" y="550" style="fill:black;" font-family="Arial" font-size="16px">nom</text>
   <rect width="63" height="20" x="876" y="556" style="fill:none;stroke:black;"/>
   <text width="63" height="20" x="881" y="570" style="fill:black;" font-family="Arial" font-size="16px">longuer</text>
   <rect width="63" height="20" x="876" y="576" style="fill:none;stroke:black;"/>
   <text width="63" height="20" x="881" y="590" style="fill:black;" font-family="Arial" font-size="16px">largeur</text>
   <rect width="63" height="20" x="876" y="596" style="fill:none;stroke:black;"/>
   <text width="63" height="20" x="881" y="610" style="fill:black;" font-family="Arial" font-size="16px">vitesse</text>
   <rect width="72" height="20" x="443" y="425" style="fill:#007;stroke:black;"/>
   <text width="72" height="20" x="448" y="439" style="fill:#fff;" font-family="Arial" font-size="16px"> categorie</text>
   <rect width="72" height="20" x="443" y="445" style="fill:#aea;stroke:black;"/>
   <text width="72" height="20" x="448" y="459" style="fill:black;" font-family="Arial" font-size="16px">id</text>
   <rect width="72" height="20" x="443" y="465" style="fill:none;stroke:black;"/>
   <text width="72" height="20" x="448" y="479" style="fill:black;" font-family="Arial" font-size="16px">libelle</text>
   <rect width="117" height="20" x="1061" y="60" style="fill:#007;stroke:black;"/>
   <text width="117" height="20" x="1066" y="74" style="fill:#fff;" font-family="Arial" font-size="16px"> client</text>
   <rect width="117" height="20" x="1061" y="80" style="fill:#aea;stroke:black;"/>
   <text width="117" height="20" x="1066" y="94" style="fill:black;" font-family="Arial" font-size="16px">id</text>
   <rect width="117" height="20" x="1061" y="100" style="fill:none;stroke:black;"/>
   <text width="117" height="20" x="1066" y="114" style="fill:black;" font-family="Arial" font-size="16px">nom</text>
   <rect width="117" height="20" x="1061" y="120" style="fill:none;stroke:black;"/>
   <text width="117" height="20" x="1066" y="134" style="fill:black;" font-family="Arial" font-size="16px">prenom</text>
   <rect width="117" height="20" x="1061" y="140" style="fill:none;stroke:black;"/>
   <text width="117" height="20" x="1066" y="154" style="fill:black;" font-family="Arial" font-size="16px">email</text>
   <rect width="117" height="20" x="1061" y="160" style="fill:none;stroke:black;"/>
   <text width="117" height="20" x="1066" y="174" style="fill:black;" font-family="Arial" font-size="16px">adresse</text>
   <rect width="117" height="20" x="1061" y="180" style="fill:none;stroke:black;"/>
   <text width="117" height="20" x="1066" y="194" style="fill:black;" font-family="Arial" font-size="16px">code_postal</text>
   <rect width="117" height="20" x="1061" y="200" style="fill:none;stroke:black;"/>
   <text width="117" height="20" x="1066" y="214" style="fill:black;" font-family="Arial" font-size="16px">num_telephone</text>
   <rect width="73" height="20" x="655" y="416" style="fill:#007;stroke:black;"/>
   <text width="73" height="20" x="660" y="430" style="fill:#fff;" font-family="Arial" font-size="16px"> contenir</text>
   <rect width="73" height="20" x="655" y="436" style="fill:#aea;stroke:black;"/>
   <text width="73" height="20" x="660" y="450" style="fill:black;" font-family="Arial" font-size="16px">nbMax</text>
   <rect width="73" height="20" x="655" y="456" style="fill:none;stroke:black;"/>
   <text width="73" height="20" x="660" y="470" style="fill:black;" font-family="Arial" font-size="16px">idBateau</text>
   <rect width="73" height="20" x="655" y="476" style="fill:none;stroke:black;"/>
   <text width="73" height="20" x="660" y="490" style="fill:black;" font-family="Arial" font-size="16px">idCate</text>
   <rect width="93" height="20" x="428" y="576" style="fill:#007;stroke:black;"/>
   <text width="93" height="20" x="433" y="590" style="fill:#fff;" font-family="Arial" font-size="16px"> equipement</text>
   <rect width="93" height="20" x="428" y="596" style="fill:#aea;stroke:black;"/>
   <text width="93" height="20" x="433" y="610" style="fill:black;" font-family="Arial" font-size="16px">id</text>
   <rect width="93" height="20" x="428" y="616" style="fill:none;stroke:black;"/>
   <text width="93" height="20" x="433" y="630" style="fill:black;" font-family="Arial" font-size="16px">libelle</text>
   <rect width="92" height="20" x="126" y="121" style="fill:#007;stroke:black;"/>
   <text width="92" height="20" x="131" y="135" style="fill:#fff;" font-family="Arial" font-size="16px"> liaison</text>
   <rect width="92" height="20" x="126" y="141" style="fill:#aea;stroke:black;"/>
   <text width="92" height="20" x="131" y="155" style="fill:black;" font-family="Arial" font-size="16px">id</text>
   <rect width="92" height="20" x="126" y="161" style="fill:none;stroke:black;"/>
   <text width="92" height="20" x="131" y="175" style="fill:black;" font-family="Arial" font-size="16px">duree</text>
   <rect width="92" height="20" x="126" y="181" style="fill:none;stroke:black;"/>
   <text width="92" height="20" x="131" y="195" style="fill:black;" font-family="Arial" font-size="16px">id-secteur</text>
   <rect width="92" height="20" x="126" y="201" style="fill:none;stroke:black;"/>
   <text width="92" height="20" x="131" y="215" style="fill:black;" font-family="Arial" font-size="16px">port-depart</text>
   <rect width="92" height="20" x="126" y="221" style="fill:none;stroke:black;"/>
   <text width="92" height="20" x="131" y="235" style="fill:black;" font-family="Arial" font-size="16px">port-arrivee</text>
   <rect width="78" height="20" x="862" y="392" style="fill:#007;stroke:black;"/>
   <text width="78" height="20" x="867" y="406" style="fill:#fff;" font-family="Arial" font-size="16px"> participer</text>
   <rect width="78" height="20" x="862" y="412" style="fill:#aea;stroke:black;"/>
   <text width="78" height="20" x="867" y="426" style="fill:black;" font-family="Arial" font-size="16px">nombre</text>
   <rect width="110" height="20" x="637" y="59" style="fill:#007;stroke:black;"/>
   <text width="110" height="20" x="642" y="73" style="fill:#fff;" font-family="Arial" font-size="16px"> periode</text>
   <rect width="110" height="20" x="637" y="79" style="fill:#aea;stroke:black;"/>
   <text width="110" height="20" x="642" y="93" style="fill:black;" font-family="Arial" font-size="16px">id</text>
   <rect width="110" height="20" x="637" y="99" style="fill:none;stroke:black;"/>
   <text width="110" height="20" x="642" y="113" style="fill:black;" font-family="Arial" font-size="16px">dateDebut</text>
   <rect width="110" height="20" x="637" y="119" style="fill:none;stroke:black;"/>
   <text width="110" height="20" x="642" y="133" style="fill:black;" font-family="Arial" font-size="16px">dateFin</text>
   <rect width="110" height="20" x="637" y="139" style="fill:none;stroke:black;"/>
   <text width="110" height="20" x="642" y="153" style="fill:black;" font-family="Arial" font-size="16px">tarifer_periode</text>
   <rect width="41" height="20" x="392" y="218" style="fill:#007;stroke:black;"/>
   <text width="41" height="20" x="397" y="232" style="fill:#fff;" font-family="Arial" font-size="16px"> port</text>
   <rect width="41" height="20" x="392" y="238" style="fill:#aea;stroke:black;"/>
   <text width="41" height="20" x="397" y="252" style="fill:black;" font-family="Arial" font-size="16px">id</text>
   <rect width="41" height="20" x="392" y="258" style="fill:none;stroke:black;"/>
   <text width="41" height="20" x="397" y="272" style="fill:black;" font-family="Arial" font-size="16px">nom</text>
   <rect width="108" height="20" x="660" y="554" style="fill:#007;stroke:black;"/>
   <text width="108" height="20" x="665" y="568" style="fill:#fff;" font-family="Arial" font-size="16px"> proposer</text>
   <rect width="108" height="20" x="660" y="574" style="fill:#aea;stroke:black;"/>
   <text width="108" height="20" x="665" y="588" style="fill:black;" font-family="Arial" font-size="16px">quantite</text>
   <rect width="108" height="20" x="660" y="594" style="fill:none;stroke:black;"/>
   <text width="108" height="20" x="665" y="608" style="fill:black;" font-family="Arial" font-size="16px">idEquipement</text>
   <rect width="108" height="20" x="660" y="614" style="fill:none;stroke:black;"/>
   <text width="108" height="20" x="665" y="628" style="fill:black;" font-family="Arial" font-size="16px">idBateau</text>
   <rect width="95" height="20" x="1067" y="314" style="fill:#007;stroke:black;"/>
   <text width="95" height="20" x="1072" y="328" style="fill:#fff;" font-family="Arial" font-size="16px"> reservation</text>
   <rect width="95" height="20" x="1067" y="334" style="fill:#aea;stroke:black;"/>
   <text width="95" height="20" x="1072" y="348" style="fill:black;" font-family="Arial" font-size="16px">id</text>
   <rect width="95" height="20" x="1067" y="354" style="fill:none;stroke:black;"/>
   <text width="95" height="20" x="1072" y="368" style="fill:black;" font-family="Arial" font-size="16px">idClient</text>
   <rect width="95" height="20" x="1067" y="374" style="fill:none;stroke:black;"/>
   <text width="95" height="20" x="1072" y="388" style="fill:black;" font-family="Arial" font-size="16px">nombreP</text>
   <rect width="95" height="20" x="1067" y="394" style="fill:none;stroke:black;"/>
   <text width="95" height="20" x="1072" y="408" style="fill:black;" font-family="Arial" font-size="16px">idTraversee</text>
   <rect width="62" height="20" x="127" y="344" style="fill:#007;stroke:black;"/>
   <text width="62" height="20" x="132" y="358" style="fill:#fff;" font-family="Arial" font-size="16px"> secteur</text>
   <rect width="62" height="20" x="127" y="364" style="fill:#aea;stroke:black;"/>
   <text width="62" height="20" x="132" y="378" style="fill:black;" font-family="Arial" font-size="16px">id</text>
   <rect width="62" height="20" x="127" y="384" style="fill:none;stroke:black;"/>
   <text width="62" height="20" x="132" y="398" style="fill:black;" font-family="Arial" font-size="16px">nom</text>
   <rect width="78" height="20" x="849" y="63" style="fill:#007;stroke:black;"/>
   <text width="78" height="20" x="854" y="77" style="fill:#fff;" font-family="Arial" font-size="16px"> tarifer</text>
   <rect width="78" height="20" x="849" y="83" style="fill:#aea;stroke:black;"/>
   <text width="78" height="20" x="854" y="97" style="fill:black;" font-family="Arial" font-size="16px">tarif</text>
   <rect width="78" height="20" x="849" y="103" style="fill:none;stroke:black;"/>
   <text width="78" height="20" x="854" y="117" style="fill:black;" font-family="Arial" font-size="16px">idType</text>
   <rect width="78" height="20" x="849" y="123" style="fill:none;stroke:black;"/>
   <text width="78" height="20" x="854" y="137" style="fill:black;" font-family="Arial" font-size="16px">idPeriode</text>
   <rect width="73" height="20" x="1085" y="490" style="fill:#007;stroke:black;"/>
   <text width="73" height="20" x="1090" y="504" style="fill:#fff;" font-family="Arial" font-size="16px"> traversee</text>
   <rect width="73" height="20" x="1085" y="510" style="fill:#aea;stroke:black;"/>
   <text width="73" height="20" x="1090" y="524" style="fill:black;" font-family="Arial" font-size="16px">id</text>
   <rect width="73" height="20" x="1085" y="530" style="fill:none;stroke:black;"/>
   <text width="73" height="20" x="1090" y="544" style="fill:black;" font-family="Arial" font-size="16px">date</text>
   <rect width="73" height="20" x="1085" y="550" style="fill:none;stroke:black;"/>
   <text width="73" height="20" x="1090" y="564" style="fill:black;" font-family="Arial" font-size="16px">heure</text>
   <rect width="73" height="20" x="1085" y="570" style="fill:none;stroke:black;"/>
   <text width="73" height="20" x="1090" y="584" style="fill:black;" font-family="Arial" font-size="16px">idBateau</text>
   <rect width="73" height="20" x="1085" y="590" style="fill:none;stroke:black;"/>
   <text width="73" height="20" x="1090" y="604" style="fill:black;" font-family="Arial" font-size="16px">idLiaison</text>
   <rect width="75" height="20" x="859" y="230" style="fill:#007;stroke:black;"/>
   <text width="75" height="20" x="864" y="244" style="fill:#fff;" font-family="Arial" font-size="16px"> type</text>
   <rect width="75" height="20" x="859" y="250" style="fill:#aea;stroke:black;"/>
   <text width="75" height="20" x="864" y="264" style="fill:black;" font-family="Arial" font-size="16px">id</text>
   <rect width="75" height="20" x="859" y="270" style="fill:none;stroke:black;"/>
   <text width="75" height="20" x="864" y="284" style="fill:black;" font-family="Arial" font-size="16px">libelle</text>
   <rect width="75" height="20" x="859" y="290" style="fill:none;stroke:black;"/>
   <text width="75" height="20" x="864" y="304" style="fill:black;" font-family="Arial" font-size="16px">nombreP</text>
</svg>
