<svg xmlns="http://www.w3.org/2000/svg" xmlns:xlink="http://www.w3.org/1999/xlink" viewBox="0,0,256,256" width="96px" height="96px" fill-rule="nonzero"><g fill="#8080ff" fill-rule="nonzero" stroke="none" stroke-width="1" stroke-linecap="butt" stroke-linejoin="miter" stroke-miterlimit="10" stroke-dasharray="" stroke-dashoffset="0" font-family="none" font-weight="none" font-size="none" text-anchor="none" style="mix-blend-mode: normal"><g transform="scale(10.66667,10.66667)"><path d="M5,3c-1.1,0 -2,0.9 -2,2v14c0,1.1 0.9,2 2,2h14c1.1,0 2,-0.9 2,-2v-14c0,-1.1 -0.9,-2 -2,-2zM7.72852,8h1.85938c2.326,0 2.60547,2.14047 2.60547,2.60547c0,1.86 -1.30172,2.50976 -2.51172,2.50976h-1.11719v1.95313c0,0.462 -0.37394,0.83789 -0.83594,0.83789c-0.462,0 -0.83789,-0.37589 -0.83789,-0.83789v-6.23047c0,-0.462 0.37589,-0.83789 0.83789,-0.83789zM8.56445,9.30273v2.51172h1.11719c0.744,0 0.92969,-0.55798 0.92969,-1.20898c0.001,-0.652 -0.27769,-1.30273 -0.92969,-1.30273zM15.16992,9.95313c0.826,0 1.42344,0.29214 1.77344,0.74414c0.352,0.454 0.02322,1.11523 -0.55078,1.11523h-0.0957c-0.27,0 -0.53781,-0.14739 -0.63281,-0.40039c-0.083,-0.22 -0.24614,-0.34375 -0.49414,-0.34375c-0.279,0 -0.55859,0.18659 -0.55859,0.55859c0,0.93 2.69727,0.65027 2.69727,2.69727c0,1.397 -1.39467,1.67578 -2.13867,1.67578c-0.885,0 -1.50623,-0.36256 -1.86523,-0.85156c-0.336,-0.457 -0.00841,-1.10156 0.55859,-1.10156c0.268,0 0.52891,0.14358 0.62891,0.39258c0.154,0.386 0.53173,0.44336 0.67773,0.44336c0.372,0 0.65039,-0.18659 0.65039,-0.55859c0,-0.837 -2.69922,-0.74252 -2.69922,-2.60352c0,-1.395 1.30383,-1.76758 2.04883,-1.76758z"></path></g></g></svg>